<svg width="539" height="603" viewBox="0 0 539 603" fill="none" xmlns="http://www.w3.org/2000/svg">
<path d="M283.388 28.8237C198.653 29.1855 122.005 64.4007 66.2178 121.324L283.388 344.796V28.8237Z" fill="#008C8C"/>
<path d="M491.651 344.795C491.417 285.701 468.211 232.276 430.707 193.322L283.388 344.795H491.651Z" fill="#AAAAAA"/>
<path d="M420.277 203.935C385.117 167.996 336.831 145.805 283.388 145.564V344.796L420.277 203.935Z" fill="#AAAAAA"/>
<path d="M440.084 506.038C480.049 464.673 504.778 407.749 505.012 344.796H283.506L440.084 506.038Z" fill="#AAAAAA"/>
<path d="M283.388 591.182C349.371 590.941 409.143 563.444 452.624 519.063L283.388 344.796V591.182Z" fill="#22A563"/>
<path d="M317.493 0C232.757 0.3618 156.109 35.577 100.322 92.5003L317.493 315.972V0Z" fill="#00ACB6"/>
<path d="M316.087 316.334H316.907L116.027 109.626C115.91 109.746 115.793 109.987 115.559 110.108C115.441 110.229 115.324 110.47 115.09 110.59C114.973 110.711 114.855 110.952 114.621 111.073C114.504 111.193 114.387 111.435 114.152 111.555C114.035 111.676 113.918 111.917 113.683 112.038C113.566 112.158 113.449 112.399 113.215 112.52C113.097 112.641 112.98 112.882 112.746 113.002C112.629 113.123 112.511 113.364 112.277 113.485C112.16 113.605 112.043 113.847 111.808 113.967C111.691 114.088 111.574 114.329 111.339 114.45C111.222 114.57 111.105 114.811 110.871 114.932C110.753 115.053 110.636 115.294 110.402 115.414C110.285 115.535 110.167 115.776 109.933 115.897C109.816 116.017 109.699 116.259 109.464 116.379C109.347 116.5 109.23 116.741 108.995 116.862C108.878 116.982 108.761 117.223 108.527 117.344C108.409 117.465 108.292 117.706 108.058 117.826C107.941 117.947 107.823 118.188 107.589 118.309C107.472 118.429 107.355 118.671 107.12 118.791C107.003 118.912 106.886 119.153 106.651 119.274C106.534 119.394 106.417 119.635 106.183 119.756C106.065 119.877 105.948 120.118 105.714 120.238C105.597 120.359 105.479 120.6 105.245 120.721C105.128 120.841 105.011 121.083 104.776 121.203C104.659 121.324 104.542 121.565 104.307 121.686C104.19 121.806 104.073 122.047 103.839 122.168C103.721 122.289 103.604 122.53 103.37 122.65C103.253 122.771 103.135 123.012 102.901 123.133C102.784 123.253 102.667 123.495 102.432 123.615C102.315 123.736 102.198 123.977 101.963 124.098C101.846 124.218 101.729 124.459 101.495 124.58C101.377 124.701 101.26 124.942 101.026 125.062C100.909 125.183 100.791 125.424 100.557 125.545C100.44 125.665 100.323 125.907 100.088 126.027C99.971 126.148 99.8538 126.389 99.6194 126.51C99.5022 126.63 99.385 126.871 99.1506 126.992C99.0334 127.113 98.9162 127.354 98.6818 127.474C98.5646 127.595 98.4474 127.836 98.213 127.957C98.0958 128.077 97.9786 128.319 97.7442 128.439C97.627 128.56 97.5098 128.801 97.2754 128.922C97.1582 129.042 97.041 129.283 96.8066 129.404C96.6894 129.525 96.5723 129.766 96.3379 129.886C96.2206 130.007 96.1034 130.248 95.869 130.369C95.7519 130.489 95.6347 130.731 95.4003 130.851C95.2831 130.972 95.1659 131.213 94.9315 131.334C94.8143 131.454 94.6971 131.695 94.4627 131.816C94.3455 131.937 94.2283 132.178 93.9939 132.298C93.8767 132.419 93.7595 132.66 93.5251 132.781C93.4079 132.901 93.2907 133.143 93.0563 133.263C92.9391 133.384 92.8219 133.625 92.5875 133.746C92.4703 133.866 92.3531 134.107 92.1187 134.228C92.0015 134.349 91.8843 134.59 91.6499 134.71C91.5327 134.831 91.4155 135.072 91.1811 135.193C91.0639 135.313 90.9467 135.555 90.7123 135.675C90.5951 135.796 90.4779 136.037 90.2435 136.158C90.1263 136.278 90.0091 136.519 89.7747 136.64C89.6575 136.761 89.5403 137.002 89.3059 137.122C89.1887 137.243 89.0715 137.484 88.8371 137.605C88.7199 137.725 88.6027 137.967 88.3683 138.087C88.2511 138.208 88.1339 138.449 87.8995 138.57C87.7823 138.69 87.6651 138.931 87.4307 139.052C87.3135 139.173 87.1963 139.414 86.9619 139.534C86.8447 139.655 86.7275 139.896 86.4931 140.017C86.3759 140.137 86.2587 140.379 86.0243 140.499C85.9071 140.62 85.7899 140.861 85.5555 140.982C85.4383 141.102 85.3211 141.343 85.0867 141.464C84.9695 141.585 84.8523 141.826 84.6179 141.946C84.5007 142.067 84.3835 142.308 84.1491 142.429C84.0319 142.549 83.9147 142.791 83.6803 142.911C83.5631 143.032 83.4459 143.273 83.2115 143.394C31.9954 196.458 0.351598 269.541 0 350.102H284.208L283.857 349.74H284.677L284.326 349.379H285.146L284.794 349.017H285.615L285.263 348.655H286.084L285.732 348.293H286.552L286.201 347.931H287.021L286.67 347.57H287.49L287.138 347.208H287.959L287.607 346.846H288.428L288.076 346.484H288.896L288.545 346.122H289.365L289.014 345.761H289.834L289.482 345.399H290.303L289.951 345.037H290.772L290.42 344.675H291.24L290.889 344.313H291.709L291.358 343.952H292.178L291.826 343.59H292.647L292.295 343.228H293.116L292.764 342.866H293.584L293.233 342.504H294.053L293.702 342.143H294.522L294.17 341.781H294.991L294.639 341.419H295.46L295.108 341.057H295.928L295.577 340.695H296.397L296.046 340.334H296.866L296.514 339.972H297.335L296.983 339.61H297.803L297.452 339.248H298.272L297.921 338.886H298.741L298.389 338.525H299.21L298.858 338.163H299.679L299.327 337.801H300.147L299.796 337.439H300.616L300.265 337.077H301.085L300.733 336.716H301.554L301.202 336.354H302.023L301.671 335.992H302.491L302.14 335.63H302.96L302.609 335.268H303.429L303.077 334.907H303.898L303.546 334.545H304.367L304.015 334.183H304.835L304.484 333.821H305.304L304.601 326.103H305.421L305.07 325.741H305.89L305.539 325.379H306.359L306.007 325.017H306.828L306.476 324.656H307.297L306.945 324.294H307.765L307.414 323.932H308.234L307.883 323.57H308.703L308.351 323.208H309.172L308.82 322.847H309.641L309.289 322.485H310.109L309.758 322.123H310.578L310.227 321.761H311.047L310.695 321.399H311.516L311.164 321.038H311.985L311.633 320.676H312.453L312.102 320.314H312.922L312.571 319.952H313.391L313.039 319.59H313.86L313.508 319.229H314.329L313.977 318.867H314.797L314.446 318.505H315.266L314.915 318.143H315.735L315.383 317.781H316.204L316.087 316.334Z" fill="#79A035"/>
<path d="M116.496 109.143C65.28 162.207 33.6361 235.291 33.2845 315.852H317.493L116.496 109.143Z" fill="#C2E880"/>
<path d="M525.639 315.972C525.405 256.878 502.199 203.453 464.696 164.499L317.493 315.972H525.639Z" fill="#F2973E"/>
<path d="M454.382 175.111C419.222 139.172 370.936 116.982 317.493 116.741V315.972L454.382 175.111Z" fill="#E74342"/>
<path d="M317.024 316.333L316.556 316.816V316.695L316.087 317.178V317.057L315.618 317.539V317.419L315.149 317.901V317.781L314.68 318.263V318.142L314.212 318.625V318.504L313.743 318.987V318.866L313.274 319.348V319.228L312.805 319.71V319.59L312.337 320.072V319.951L311.868 320.434V320.313L311.399 320.796V320.675L310.93 321.157V321.037L310.461 321.519V321.399L309.993 321.881V322.484L309.524 322.966V322.846L309.055 323.328V323.208L308.586 323.69L308.117 324.172V324.052L307.649 324.534V324.414L307.18 324.896L306.711 325.378V325.258L306.242 325.74V325.62L305.773 326.102L305.305 326.585V326.464L304.836 326.946V326.826L304.367 327.308L303.898 327.791V327.67L303.429 328.152V328.032L302.961 328.514L302.492 328.997V328.876L302.023 329.358V329.238L301.554 329.72L301.085 330.203V330.082L300.617 330.564V330.444L300.148 330.926L299.679 331.409V331.288L299.21 331.77V331.65L298.741 332.132V332.012L298.273 332.494V332.373L297.804 332.856V332.735L297.335 333.218V333.097L296.866 333.579V333.459L296.397 333.941V333.821L295.929 334.303V334.182L295.46 334.665V334.544L294.991 335.027V334.906L294.522 335.388V335.268L294.053 335.75V335.63L293.585 336.112V335.991L293.116 336.474V336.353L292.647 336.836V336.715L292.178 337.197V337.077L291.709 337.559V337.439L291.241 337.921V337.8L290.772 338.283V338.162L290.303 338.645V338.524L289.834 339.006V338.886L289.365 339.368V339.248L288.897 339.73V339.609L288.428 340.092V339.971L287.959 340.454V340.333L287.49 340.815V340.695L287.021 341.177V341.057L286.553 341.539V341.418L286.084 341.901V341.78L285.615 342.263V342.142L285.146 342.624V342.504L284.677 342.986V342.866L284.209 343.348V343.227L106.066 527.384C151.656 573.935 214.241 602.759 283.388 603V602.638C283.505 602.638 283.74 602.638 283.857 602.638V602.276C283.974 602.276 284.209 602.276 284.326 602.276V601.914C284.443 601.914 284.677 601.914 284.795 601.914V601.553C284.912 601.553 285.146 601.553 285.263 601.553V601.191C285.381 601.191 285.615 601.191 285.732 601.191V600.829C285.849 600.829 286.084 600.829 286.201 600.829V600.467C286.318 600.467 286.553 600.467 286.67 600.467V600.105C286.787 600.105 287.021 600.105 287.139 600.105V599.744C287.256 599.744 287.49 599.744 287.607 599.744V599.382C287.725 599.382 287.959 599.382 288.076 599.382V599.02C288.193 599.02 288.428 599.02 288.545 599.02V598.658C288.662 598.658 288.897 598.658 289.014 598.658V598.296C289.131 598.296 289.365 598.296 289.483 598.296V597.935C289.6 597.935 289.834 597.935 289.951 597.935V597.573C290.069 597.573 290.303 597.573 290.42 597.573V597.211C290.537 597.211 290.772 597.211 290.889 597.211V596.849C291.006 596.849 291.241 596.849 291.358 596.849V596.487C291.475 596.487 291.709 596.487 291.827 596.487V596.126C291.944 596.126 292.178 596.126 292.295 596.126V595.764C292.413 595.764 292.647 595.764 292.764 595.764V595.402C292.881 595.402 293.116 595.402 293.233 595.402V595.04C293.35 595.04 293.585 595.04 293.702 595.04V594.678C293.819 594.678 294.053 594.678 294.171 594.678V594.317C294.288 594.317 294.522 594.317 294.639 594.317V593.955C294.757 593.955 294.991 593.955 295.108 593.955V593.593C295.225 593.593 295.46 593.593 295.577 593.593V593.231C295.694 593.231 295.929 593.231 296.046 593.231V592.869C296.163 592.869 296.397 592.869 296.515 592.869V592.508C296.632 592.508 296.866 592.508 296.983 592.508V592.146C297.101 592.146 297.335 592.146 297.452 592.146V591.784C297.569 591.784 297.804 591.784 297.921 591.784V591.422C298.038 591.422 298.273 591.422 298.39 591.422V591.06C298.507 591.06 298.741 591.06 298.859 591.06V590.699C298.976 590.699 299.21 590.699 299.327 590.699V590.337C299.445 590.337 299.679 590.337 299.796 590.337V589.975C299.913 589.975 300.148 589.975 300.265 589.975V589.613C300.382 589.613 300.617 589.613 300.734 589.613V589.251C300.851 589.251 301.085 589.251 301.203 589.251V588.89C301.32 588.89 301.554 588.89 301.671 588.89V586.598C301.789 586.598 302.023 586.598 302.14 586.598V586.236C302.257 586.236 302.492 586.236 302.609 586.236V585.875C302.726 585.875 302.961 585.875 303.078 585.875V585.392C303.195 585.392 303.429 585.392 303.547 585.392V585.03C303.664 585.03 303.898 585.03 304.015 585.03V584.669C304.133 584.669 304.367 584.669 304.484 584.669V584.186C304.601 584.186 304.836 584.186 304.953 584.186V583.824C305.07 583.824 305.305 583.824 305.422 583.824V583.463C305.539 583.463 305.773 583.463 305.891 583.463V582.98C306.008 582.98 306.242 582.98 306.359 582.98V582.618C306.477 582.618 306.711 582.618 306.828 582.618V582.257C306.945 582.257 307.18 582.257 307.297 582.257V581.774C307.414 581.774 307.649 581.774 307.766 581.774V581.412C307.883 581.412 308.117 581.412 308.235 581.412V581.051C308.352 581.051 308.586 581.051 308.703 581.051V580.568C308.821 580.568 309.055 580.568 309.172 580.568V580.206C309.289 580.206 309.524 580.206 309.641 580.206V579.845C309.758 579.845 309.993 579.845 310.11 579.845V579.362C310.227 579.362 310.461 579.362 310.579 579.362V579C310.696 579 310.93 579 311.047 579V578.639C311.165 578.639 311.399 578.639 311.516 578.639V578.156C311.633 578.156 311.868 578.156 311.985 578.156V577.794C312.102 577.794 312.337 577.794 312.454 577.794V577.433C312.571 577.433 312.805 577.433 312.923 577.433V577.071C313.04 577.071 313.274 577.071 313.391 577.071V576.709C313.508 576.709 313.743 576.709 313.86 576.709V576.347C313.977 576.347 314.212 576.347 314.329 576.347V575.985C314.446 575.985 314.68 575.985 314.798 575.985V575.624C314.915 575.624 315.149 575.624 315.266 575.624V575.262C315.384 575.262 315.618 575.262 315.735 575.262V574.9C315.852 574.9 316.087 574.9 316.204 574.9V316.333H317.024Z" fill="#0F72B4"/>
<path d="M140.054 498.44C185.644 544.992 248.229 573.815 317.376 574.056V315.972L140.054 498.44Z" fill="#2294D3"/>
<path d="M474.072 477.094C514.036 435.729 538.766 378.805 539 315.852H317.493L474.072 477.094Z" fill="#FFF03E"/>
<path d="M317.493 562.237C383.476 561.996 443.248 534.499 486.729 490.119L317.493 315.972V562.237Z" fill="#37DD86"/>
<path d="M317.025 316.333H52.0371C52.0371 316.454 52.0371 316.575 52.0371 316.695H51.5683C51.5683 316.816 51.5683 316.937 51.5683 317.057H51.0995C51.0995 317.178 51.0995 317.298 51.0995 317.419H50.6307C50.6307 317.539 50.6307 317.66 50.6307 317.781H50.1619C50.1619 317.901 50.1619 318.022 50.1619 318.142H49.6931C49.6931 318.263 49.6931 318.384 49.6931 318.504H49.1071C49.1071 318.625 49.1071 318.746 49.1071 318.866H48.6383C48.6383 318.987 48.6383 319.107 48.6383 319.228H48.1695C48.1695 319.348 48.1695 319.469 48.1695 319.59H47.7007C47.7007 319.71 47.7007 319.831 47.7007 319.951H47.2319C47.2319 320.072 47.2319 320.193 47.2319 320.313H46.7631C46.7631 320.434 46.7631 320.555 46.7631 320.675H46.2943C46.2943 320.796 46.2943 320.916 46.2943 321.037H45.8255C45.8255 321.157 45.8255 321.278 45.8255 321.399H45.3567C45.3567 321.519 45.3567 321.64 45.3567 321.76H44.8879C44.8879 321.881 44.8879 322.002 44.8879 322.122H44.4191C44.4191 322.243 44.4191 322.364 44.4191 322.484H43.9503C43.9503 322.605 43.9503 322.725 43.9503 322.846H43.4815C43.4815 322.966 43.4815 323.087 43.4815 323.208H43.0127C43.0127 323.328 43.0127 323.449 43.0127 323.569H42.5439C42.5439 323.69 42.5439 323.811 42.5439 323.931H42.0751C42.0751 324.052 42.0751 324.173 42.0751 324.293H41.6063C41.6063 324.414 41.6063 324.534 41.6063 324.655H41.1375C41.1375 324.775 41.1375 324.896 41.1375 325.017H40.6687C40.6687 325.137 40.6687 325.258 40.6687 325.379H40.1999C40.1999 325.499 40.1999 325.62 40.1999 325.74H39.7311C39.7311 325.861 39.7311 325.982 39.7311 326.102H39.2623C39.2623 326.223 39.2623 326.343 39.2623 326.464H38.5591C38.5591 326.584 38.5591 326.705 38.5591 326.826H38.0903C38.0903 326.946 38.0903 327.067 38.0903 327.188H37.6216C37.6216 327.308 37.6216 327.429 37.6216 327.549H37.1528C37.1528 327.67 37.1528 327.791 37.1528 327.911H36.684C36.684 328.032 36.684 328.152 36.684 328.273H36.2152C36.2152 328.393 36.2152 328.514 36.2152 328.635H35.7464C35.7464 328.755 35.7464 328.876 35.7464 328.997H35.2776C35.2776 329.117 35.2776 329.238 35.2776 329.358H34.8088C34.8088 329.479 34.8088 329.6 34.8088 329.72H34.34C34.34 329.841 34.34 329.961 34.34 330.082H33.8712C33.8712 330.202 33.8712 330.323 33.8712 330.444H33.4024C33.4024 330.564 33.4024 330.685 33.4024 330.806H32.9336C32.9336 330.926 32.9336 331.047 32.9336 331.167H32.4648C32.4648 331.288 32.4648 331.409 32.4648 331.529H31.996C31.996 331.65 31.996 331.77 31.996 331.891H31.5272C31.5272 332.011 31.5272 332.132 31.5272 332.253H31.0584C31.0584 332.373 31.0584 332.494 31.0584 332.615H30.5896C30.5896 332.735 30.5896 332.856 30.5896 332.976H30.1208C30.1208 333.097 30.1208 333.218 30.1208 333.338H29.652C29.652 333.459 29.652 333.579 29.652 333.7H29.1832C29.1832 333.82 29.1832 333.941 29.1832 334.062H28.7144C28.7144 334.182 28.7144 334.303 28.7144 334.424H28.0112C28.0112 334.544 28.0112 334.665 28.0112 334.785H27.5424C27.5424 334.906 27.5424 335.027 27.5424 335.147H27.0736C27.0736 335.268 27.0736 335.388 27.0736 335.509H26.6048C26.6048 335.629 26.6048 335.75 26.6048 335.871H26.136C26.136 335.991 26.136 336.112 26.136 336.233H25.6672C25.6672 336.353 25.6672 336.474 25.6672 336.594H25.1984C25.1984 336.715 25.1984 336.836 25.1984 336.956H24.7296C24.7296 337.077 24.7296 337.197 24.7296 337.318H24.2608C24.2608 337.439 24.2608 337.559 24.2608 337.68H23.792C23.792 337.8 23.792 337.921 23.792 338.042H23.3232C23.3232 338.162 23.3232 338.283 23.3232 338.403H22.8544C22.8544 338.524 22.8544 338.645 22.8544 338.765H22.3856C22.3856 338.886 22.3856 339.006 22.3856 339.127H21.9168C21.9168 339.248 21.9168 339.368 21.9168 339.489H21.448C21.448 339.609 21.448 339.73 21.448 339.851H20.9792C20.9792 339.971 20.9792 340.092 20.9792 340.212H20.5104C20.5104 340.333 20.5104 340.454 20.5104 340.574H20.0416C20.0416 340.695 20.0416 340.815 20.0416 340.936H19.5728C19.5728 341.057 19.5728 341.177 19.5728 341.298H19.1041C19.1041 341.418 19.1041 341.539 19.1041 341.66H18.6353C18.8697 416.793 48.5211 484.932 96.2212 534.499L96.69 534.017L97.1588 533.534L97.6276 533.052L98.0964 532.569L98.5652 532.087L99.034 531.605L99.5028 531.122L99.9716 530.64L100.44 530.157L100.909 529.675L101.378 529.193L101.847 528.71L102.316 528.228L102.784 527.745L103.253 527.263L103.722 526.781L104.191 526.298L104.66 525.816L105.128 525.333L105.597 524.851L106.066 524.369L106.535 523.886L107.004 523.404L107.472 522.921L107.941 522.439L108.41 521.957L108.879 521.474L109.348 520.992L109.816 520.509L110.285 520.027L110.754 519.545L111.223 519.062L111.692 518.58L112.16 518.097L112.629 517.615L113.098 517.133L113.567 516.65L114.036 516.168L114.504 515.685L114.973 515.203L115.442 514.721L115.911 514.238L116.38 513.756L116.848 513.273L117.317 512.791L117.786 512.309L118.255 511.826L118.724 511.344L119.192 510.861L119.661 510.379L120.13 509.897L120.599 509.414L121.067 508.932L121.536 508.449L122.005 507.967L122.474 507.485L122.943 507.002L123.411 506.52L123.88 506.037L124.349 505.555L124.818 505.073L125.287 504.59L125.755 504.108L126.224 503.625L126.693 503.143L127.162 502.661L127.631 502.178L128.099 501.696L128.568 501.213L129.037 500.731L317.025 316.333Z" fill="#8755A5"/>
<path d="M52.5051 315.972C52.7395 391.106 82.391 459.245 130.091 508.812L317.493 315.972H52.5051Z" fill="#A97BC9"/>
</svg>
